HIERARCHY
ROOT Hips
{
	OFFSET 0.00000 0.00000 0.00000
	CHANNELS 6 Xposition Yposition Zposition Zrotation Yrotation Xrotation 
	JOINT RightUpLegDummy
	{
		OFFSET 0 0 0
		CHANNELS 3 Zrotation Yrotation Xrotation
		JOINT RightUpLeg
		{
			OFFSET -3.52197 -3.41223 0.04002
			CHANNELS 3 Zrotation Yrotation Xrotation
			JOINT RightLeg
			{
				OFFSET 0.00006 -17.42390 1.60435
				CHANNELS 3 Zrotation Yrotation Xrotation
				JOINT RightFoot
				{
					OFFSET 0.06154 -16.50078 -1.63900
					CHANNELS 3 Zrotation Yrotation Xrotation
					JOINT RightToes
					{
						OFFSET 0.00298 -1.73825 3.34613
						CHANNELS 3 Zrotation Yrotation Xrotation
						End Site
						{
							OFFSET 0.00480 -0.05416 3.85043
						}
					}
				}
			}
		}
	}
	JOINT SpineDummy
	{
		OFFSET 0 0 0
		CHANNELS 3 Zrotation Yrotation Xrotation
		JOINT Spine
		{
			OFFSET 0.00000 4.68130 0.00000
			CHANNELS 3 Zrotation Yrotation Xrotation
			JOINT Spine1
			{
				OFFSET -0.00000 10.10138 0.05002
				CHANNELS 3 Zrotation Yrotation Xrotation
				JOINT HEadDummy
				{
					OFFSET 0 0 0
					CHANNELS 3 Zrotation Yrotation Xrotation
					JOINT Head
					{
						OFFSET -0.00000 3.43865 0.00438
						CHANNELS 3 Zrotation Yrotation Xrotation
						End Site
						{
							OFFSET -0.11417 5.02924 0.98962
						}
					}
				}
				JOINT LeftShoulder1Dummy
				{
					OFFSET 0 0 0
					CHANNELS 3 Zrotation Yrotation Xrotation
					JOINT LeftShoulder1
					{
						OFFSET 3.53937 -0.14262 -0.08662
						CHANNELS 3 Zrotation Yrotation Xrotation
						JOINT LeftArm
						{
							OFFSET 4.04833 -0.00133 0.12681
							CHANNELS 3 Zrotation Yrotation Xrotation
							JOINT LeftForeArm
							{
								OFFSET 10.33880 -0.01036 -0.55515
								CHANNELS 3 Zrotation Yrotation Xrotation
								JOINT LeftHand
								{
									OFFSET 8.69677 0.07543 0.40060
									CHANNELS 3 Zrotation Yrotation Xrotation
									End Site
									{
										OFFSET 5.28377 -0.21905 0.59205
									}
								}
							}
						}
					}
				}
				JOINT RightShoulderDummy
				{
					OFFSET 0 0 0
					CHANNELS 3 Zrotation Yrotation Xrotation
					JOINT RightShoulder
					{
						OFFSET -3.53937 -0.14262 -0.08660
						CHANNELS 3 Zrotation Yrotation Xrotation
						JOINT RightArm
						{
							OFFSET -4.04833 -0.00133 0.12683
							CHANNELS 3 Zrotation Yrotation Xrotation
							JOINT RightForeArm
							{
								OFFSET -10.37987 -0.01039 -0.55511
								CHANNELS 3 Zrotation Yrotation Xrotation
								JOINT RightHand
								{
									OFFSET -8.67398 0.07538 0.40058
									CHANNELS 3 Zrotation Yrotation Xrotation
									End Site
									{
										OFFSET -5.24810 -0.21916 0.59204
									}
								}
							}
						}
					}
				}
			}
		}
	}
	JOINT LeftUpLegDummy
	{
		OFFSET 0 0 0
		CHANNELS 3 Zrotation Yrotation Xrotation
		JOINT LeftUpLeg
		{
			OFFSET 3.52197 -3.41223 0.04002
			CHANNELS 3 Zrotation Yrotation Xrotation
			JOINT LeftLeg
			{
				OFFSET -0.00012 -17.42399 1.60337
				CHANNELS 3 Zrotation Yrotation Xrotation
				JOINT LeftFoot
				{
					OFFSET -0.09972 -16.50070 -1.63802
					CHANNELS 3 Zrotation Yrotation Xrotation
					JOINT LeftToes
					{
						OFFSET -0.01575 -1.73823 3.34611
						CHANNELS 3 Zrotation Yrotation Xrotation
						End Site
						{
							OFFSET 0.03150 -0.01868 3.85031
						}
					}
				}
			}
		}
	}
}
MOTION
Frames: 7
Frame Time: 0.033333
-5.9290 39.2485 9.1394 177.9350 30.8936 -179.6060 0.0000 0.0000 0.0000 -8.0961 -3.9109 -9.6050 -5.5367 -11.2225 19.2388 14.6532 -0.5479 -7.2935 0.0000 0.0000 -0.0000 0.0000 0.0000 0.0000 -0.6971 1.1410 6.5642 -4.2111 3.2864 28.5035 0.0000 0.0000 0.0000 -11.7053 20.2062 -24.4380 0.0000 0.0000 0.0000 -14.1546 -7.3409 2.2841 -54.0927 -20.5718 20.3184 -24.8100 -89.3597 28.6023 24.7693 -3.9295 -1.9810 0.0000 0.0000 0.0000 10.9237 1.6221 0.9305 61.1965 16.5391 27.0880 179.3033 66.9288 -177.3283 -11.9693 4.1441 -0.9509 0.0000 0.0000 0.0000 4.6183 1.6216 -12.1941 2.6692 5.4500 17.3798 -9.6897 0.5305 -5.4708 0.0000 -0.0000 0.0000
-5.8251 39.2366 9.2539 178.2570 30.9177 -179.4570 0.0000 0.0000 0.0000 -7.5465 -4.0755 -9.7141 -5.4770 -11.0535 19.3329 14.3973 -0.5237 -7.4171 0.0000 0.0000 -0.0000 0.0000 0.0000 0.0000 -0.3324 1.2044 6.6562 -4.2260 3.3950 28.4220 0.0000 0.0000 0.0000 -11.6872 19.9875 -24.7323 0.0000 0.0000 0.0000 -14.1754 -7.4661 2.3125 -54.4000 -20.3998 20.5533 -25.4847 -89.3762 29.2323 24.7238 -3.7971 -1.9496 0.0000 0.0000 0.0000 10.7883 1.5344 0.9084 60.9778 16.9632 27.0385 179.3196 66.9825 -177.1588 -11.4901 4.2096 -0.9172 0.0000 0.0000 0.0000 5.1801 1.5696 -12.3509 2.7046 5.4826 17.5912 -9.9400 0.5436 -5.4677 0.0000 -0.0000 0.0000
-5.6401 39.1564 9.4832 178.9470 30.8518 -179.2330 0.0000 0.0000 0.0000 -6.4843 -4.2818 -10.1453 -5.5060 -10.8336 20.2039 14.0089 -0.4517 -7.9071 0.0000 0.0000 -0.0000 0.0000 0.0000 0.0000 0.3576 1.2205 7.0115 -4.1928 3.4592 28.2522 0.0000 0.0000 0.0000 -11.6356 19.7276 -25.2996 0.0000 0.0000 0.0000 -14.1789 -7.6304 2.3475 -55.1272 -20.0549 20.9561 -24.6163 -89.3716 28.5166 24.5028 -3.6499 -1.9008 0.0000 0.0000 0.0000 10.5650 1.4661 0.8861 60.6494 18.0343 26.8345 179.3414 67.2047 -176.8998 -10.9982 4.1616 -0.8719 0.0000 0.0000 0.0000 6.3469 1.2041 -12.9603 2.8729 5.5922 18.7539 -10.4310 0.5389 -5.8169 0.0000 -0.0000 0.0000
-5.4706 38.9836 9.7291 179.8680 30.5279 -179.1300 0.0000 0.0000 0.0000 -5.2431 -4.5950 -10.7607 -5.7279 -10.5883 22.0168 13.7586 -0.3405 -8.7915 0.0000 0.0000 -0.0000 0.0000 0.0000 0.0000 1.2447 1.0333 7.4924 -4.0864 3.3062 28.3951 0.0000 0.0000 0.0000 -11.6553 19.6382 -26.0113 0.0000 0.0000 0.0000 -14.1755 -7.7682 2.3763 -56.0548 -19.8133 21.1669 -20.6815 -89.2994 24.8919 24.2861 -3.6900 -1.8914 0.0000 0.0000 0.0000 10.3219 1.5182 0.8844 60.3919 19.5895 26.2393 179.3484 67.5600 -176.7565 -10.8966 4.0624 -0.8549 0.0000 0.0000 0.0000 7.7388 0.5963 -14.0061 3.1452 5.5697 21.1127 -10.8497 0.4801 -6.7078 0.0000 -0.0000 0.0000
-5.3541 38.7527 9.9354 -179.1340 29.9582 -179.2910 0.0000 0.0000 0.0000 -4.0266 -5.1068 -11.2130 -6.0859 -10.2809 24.2590 13.6618 -0.2146 -9.8577 0.0000 0.0000 -0.0000 0.0000 0.0000 0.0000 2.2891 0.6834 7.9562 -3.9712 3.0203 29.0720 0.0000 0.0000 0.0000 -11.7481 19.6426 -26.7405 0.0000 0.0000 0.0000 -14.2542 -7.9079 2.4139 -56.9278 -19.9602 21.1741 -14.1565 -89.0267 18.5804 24.1894 -3.8060 -1.9073 0.0000 0.0000 0.0000 10.1901 1.6385 0.8995 60.0894 21.1854 25.1116 179.3367 67.9024 -176.7864 -11.0657 4.1151 -0.8735 0.0000 0.0000 0.0000 9.1028 -0.1759 -15.1351 3.4232 5.3847 24.1376 -11.1169 0.3872 -7.8436 0.0000 -0.0000 0.0000
-5.2734 38.5267 10.1013 -178.2610 29.3600 -179.7140 0.0000 0.0000 0.0000 -3.0230 -5.5714 -11.3474 -6.4587 -10.0676 26.3301 13.5657 -0.1003 -10.8398 0.0000 0.0000 -0.0000 0.0000 0.0000 0.0000 3.3139 0.3701 8.4678 -3.8774 2.8068 29.9112 0.0000 0.0000 0.0000 -11.6865 19.5394 -27.2441 0.0000 0.0000 0.0000 -14.5131 -8.0430 2.4697 -57.6116 -20.4147 21.3036 -9.0069 -88.5292 13.6065 24.0595 -3.7782 -1.8910 0.0000 0.0000 0.0000 10.2715 1.7554 0.9237 59.6364 22.2778 23.6179 179.3202 68.1364 -176.8786 -11.3051 4.2643 -0.9066 0.0000 0.0000 0.0000 10.2869 -1.1219 -16.0051 3.6813 5.1982 27.0221 -11.5182 0.3139 -8.7442 0.0000 -0.0000 0.0000
-5.2137 38.3555 10.2225 -177.7010 28.9500 179.7890 0.0000 0.0000 0.0000 -2.3778 -5.8691 -11.3113 -6.7507 -9.9297 27.8760 13.3922 -0.0159 -11.5747 0.0000 0.0000 -0.0000 0.0000 0.0000 0.0000 4.0595 0.2278 8.9916 -3.7852 2.7544 30.4408 0.0000 0.0000 0.0000 -11.2791 19.2995 -27.3184 0.0000 0.0000 0.0000 -14.9321 -8.1139 2.5293 -58.1567 -20.7163 21.7246 -6.2889 -88.0798 11.3120 23.7929 -3.6539 -1.8441 0.0000 0.0000 0.0000 10.4743 1.8560 0.9512 59.2425 22.5981 22.1744 179.3275 68.2979 -176.7726 -11.5786 4.3170 -0.9344 0.0000 0.0000 0.0000 11.1308 -2.2233 -16.5441 3.9888 5.2200 29.2106 -12.2205 0.2850 -9.1913 0.0000 -0.0000 0.0000
